name Run_50002_IK.mot
datacolumns 164
datarows 4
range 2.25 2.28
endheader
time	         pelvis_tilt	         pelvis_list	     pelvis_rotation	           pelvis_tx	           pelvis_ty	           pelvis_tz	       hip_flexion_r	     hip_adduction_r	      hip_rotation_r	        knee_angle_r	       ankle_angle_r	       hip_flexion_l	     hip_adduction_l	      hip_rotation_l	        knee_angle_l	       ankle_angle_l	    lumbar_extension	      lumbar_bending	     lumbar_rotation	          arm_flex_r	           arm_add_r	           arm_rot_r	        elbow_flex_r	           pro_sup_r	          arm_flex_l	           arm_add_l	           arm_rot_l	        elbow_flex_l	           pro_sup_l	    subtalar_angle_r	         mtp_angle_r	    subtalar_angle_l	         mtp_angle_l	        wrist_flex_r	         wrist_dev_r	        wrist_flex_l	         wrist_dev_l	             LASI_tx	             LASI_ty	             LASI_tz	             RASI_tx	             RASI_ty	             RASI_tz	             LPSI_tx	             LPSI_ty	             LPSI_tz	             RPSI_tx	             RPSI_ty	             RPSI_tz	             RTH1_tx	             RTH1_ty	             RTH1_tz	             RTH2_tx	             RTH2_ty	             RTH2_tz	             RTH3_tx	             RTH3_ty	             RTH3_tz	             LTH1_tx	             LTH1_ty	             LTH1_tz	             LTH2_tx	             LTH2_ty	             LTH2_tz	             LTH3_tx	             LTH3_ty	             LTH3_tz	             RTB1_tx	             RTB1_ty	             RTB1_tz	             RTB2_tx	             RTB2_ty	             RTB2_tz	             RTB3_tx	             RTB3_ty	             RTB3_tz	             LTB1_tx	             LTB1_ty	             LTB1_tz	             LTB2_tx	             LTB2_ty	             LTB2_tz	             LTB3_tx	             LTB3_ty	             LTB3_tz	             RCAL_tx	             RCAL_ty	             RCAL_tz	             RTOE_tx	             RTOE_ty	             RTOE_tz	             RMT5_tx	             RMT5_ty	             RMT5_tz	             LCAL_tx	             LCAL_ty	             LCAL_tz	             LTOE_tx	             LTOE_ty	             LTOE_tz	             LMT5_tx	             LMT5_ty	             LMT5_tz	             LACR_tx	             LACR_ty	             LACR_tz	             RACR_tx	             RACR_ty	             RACR_tz	             CLAV_tx	             CLAV_ty	             CLAV_tz	               C7_tx	               C7_ty	               C7_tz	             RUA1_tx	             RUA1_ty	             RUA1_tz	             RUA2_tx	             RUA2_ty	             RUA2_tz	             RUA3_tx	             RUA3_ty	             RUA3_tz	             RLEL_tx	             RLEL_ty	             RLEL_tz	             RMEL_tx	             RMEL_ty	             RMEL_tz	             LUA1_tx	             LUA1_ty	             LUA1_tz	             LUA2_tx	             LUA2_ty	             LUA2_tz	             LUA3_tx	             LUA3_ty	             LUA3_tz	             LLEL_tx	             LLEL_ty	             LLEL_tz	             LMEL_tx	             LMEL_ty	             LMEL_tz	      RFAsuperior_tx	      RFAsuperior_ty	      RFAsuperior_tz	        RFAradius_tx	        RFAradius_ty	        RFAradius_tz	          RFAulna_tx	          RFAulna_ty	          RFAulna_tz	      LFAsuperior_tx	      LFAsuperior_ty	      LFAsuperior_tz	        LFAradius_tx	        LFAradius_ty	        LFAradius_tz	          LFAulna_tx	          LFAulna_ty	          LFAulna_tz	
2.25	        -14.34111081	          4.64686334	         -2.71269868	          1.02000485	          0.97432517	         -0.34934815	         57.76373575	          0.64830059	          8.29597713	       -104.46301730	          8.33223781	         10.99216163	         11.70799347	         -6.07536149	        -33.80298243	         13.09937510	          5.00191523	         -4.62629045	         -5.08439621	        -42.78643785	        -22.28242318	        -14.12386487	         97.70740127	        105.91297522	        -24.95390001	         -9.91746621	        -13.33302064	        119.92386138	        101.26712651	          0.00000000	          0.00000000	          0.00000000	          0.00000000	          0.00000000	          0.00000000	          0.00000000	          0.00000000	          1.04802756	          1.01544203	         -0.45496078	          1.03378734	          1.01088239	         -0.23205481	          0.88225095	          1.08474428	         -0.41630136	          0.87611843	          1.07699323	         -0.30199636	          0.98289737	          0.90921501	         -0.17877728	          1.02067370	          0.77010602	         -0.20363425	          1.15865219	          0.68133506	         -0.20451523	          0.96668318	          0.88435044	         -0.52881409	          0.87369222	          0.74055905	         -0.48255006	          0.91029001	          0.60159599	         -0.46819689	          1.14541527	          0.47878229	         -0.26894851	          1.06290621	          0.52590007	         -0.20211271	          0.97356043	          0.40571098	         -0.26803399	          0.89121123	          0.37718239	         -0.37999725	          0.75837685	          0.33146340	         -0.42179197	          0.74015477	          0.21977275	         -0.35096954	          0.78974555	          0.42952664	         -0.26302039	          0.92290496	          0.22570420	         -0.26743395	          0.87942863	          0.25822424	         -0.17450573	          0.55330968	          0.17590036	         -0.31406453	          0.76102009	          0.06342233	         -0.30739967	          0.69414806	          0.04281125	         -0.39703365	          1.01954967	          1.50070906	         -0.51601387	          1.00815336	          1.49366640	         -0.18902275	          1.07626758	          1.45829855	         -0.31467893	          0.95884961	          1.52834979	         -0.35982290	          0.87557979	          1.42955496	         -0.14579077	          0.89479903	          1.37116928	         -0.09591318	          0.80073257	          1.32809921	         -0.06431165	          0.74713321	          1.28835722	         -0.03808639	          0.75033889	          1.25020172	         -0.12010563	          0.93031162	          1.39456004	         -0.57254041	          0.96581404	          1.31708785	         -0.58914929	          0.89974664	          1.24589191	         -0.61386039	          0.88681151	          1.18052892	         -0.63170953	          0.87012738	          1.16127099	         -0.54328958	          0.81194237	          1.20050813	         -0.01827654	          0.95095937	          1.09537445	         -0.07712975	          0.90235122	          1.06838171	         -0.03654728	          0.96152309	          1.14254472	         -0.62074673	          1.12232792	          1.18108617	         -0.52672536	          1.12829175	          1.11567891	         -0.55473469	
2.26	        -14.16179019	          3.12967526	         -3.96550944	          1.02355560	          0.98240744	         -0.34815764	         58.81514311	          2.83377715	          7.36580843	        -98.34225325	          8.09430533	          6.32828690	          9.98905360	         -6.19222514	        -30.65477566	          6.98227995	          5.43609080	         -2.42521727	         -4.83091905	        -45.50420278	        -22.47219286	        -15.60959960	         99.70465162	        106.23351277	        -24.52838205	         -9.25105415	        -13.47763441	        122.65045292	        100.45492032	          0.00000000	          0.00000000	          0.00000000	          0.00000000	          0.00000000	          0.00000000	          0.00000000	          0.00000000	          1.05346896	          1.02127234	         -0.45817232	          1.03514233	          1.02246267	         -0.23040792	          0.88770486	          1.09040638	         -0.41924010	          0.87816761	          1.08562829	         -0.30455110	          0.98315078	          0.92091861	         -0.17509894	          1.02697009	          0.78229277	         -0.20322877	          1.16731424	          0.69895223	         -0.20628675	          0.96951685	          0.88856483	         -0.52647114	          0.86523286	          0.75069178	         -0.48333916	          0.89245227	          0.60991510	         -0.46941426	          1.17072166	          0.48712208	         -0.27125524	          1.08267391	          0.52309652	         -0.20487143	          1.00685598	          0.38951118	         -0.26924196	          0.85917506	          0.38553512	         -0.38325285	          0.72518927	          0.34498781	         -0.42545573	          0.70485809	          0.23187214	         -0.35615778	          0.82509546	          0.39158991	         -0.26568020	          0.98231340	          0.20587284	         -0.27118202	          0.93470542	          0.23265797	         -0.17728586	          0.51915732	          0.19725573	         -0.32048855	          0.71243158	          0.06272460	         -0.30850030	          0.64491081	          0.04624531	         -0.39821081	          1.02005464	          1.50993832	         -0.51396002	          1.00402882	          1.50182997	         -0.18790016	          1.07424932	          1.46693264	         -0.31210560	          0.95818974	          1.53655618	         -0.35867161	          0.86995814	          1.44109109	         -0.14812575	          0.88671936	          1.38228713	         -0.09749557	          0.79058193	          1.34216760	         -0.06871513	          0.73509307	          1.30353050	         -0.04421849	          0.74034762	          1.26517602	         -0.12617318	          0.93290020	          1.40272684	         -0.57190917	          0.97055964	          1.32584649	         -0.58841551	          0.90668440	          1.25308679	         -0.61403911	          0.89477907	          1.18746129	         -0.63141234	          0.87688133	          1.16850170	         -0.54258255	          0.79922019	          1.21597017	         -0.02253004	          0.93942963	          1.11122869	         -0.07837300	          0.89048393	          1.08399988	         -0.03816000	          0.97102506	          1.15453550	         -0.61885952	          1.12753993	          1.20501469	         -0.52401742	          1.13822357	          1.13935361	         -0.55012539	
2.27	        -14.00318056	          1.57127040	         -5.15760341	          1.02750337	          0.99042757	         -0.34705860	         59.33880029	          4.76622289	          6.12543657	        -91.61838757	          7.59000067	          1.59640238	          8.25994004	         -6.64675379	        -27.00908582	          0.14266094	          5.82694065	         -0.15937044	         -4.57690757	        -48.25607779	        -22.63423813	        -16.96804894	        101.67527513	        105.68299902	        -24.35516282	         -8.65301324	        -13.62596233	        125.43444774	         99.91732564	          0.00000000	          0.00000000	          0.00000000	          0.00000000	          0.00000000	          0.00000000	          0.00000000	          0.00000000	          1.05917487	          1.02682086	         -0.46124447	          1.03699424	          1.03389459	         -0.22824183	          0.89342333	          1.09578671	         -0.42203939	          0.88070127	          1.09394887	         -0.30724041	          0.98420607	          0.93263276	         -0.17186257	          1.03258163	          0.79372201	         -0.20312607	          1.17290954	          0.71352792	         -0.20807231	          0.97257111	          0.89286027	         -0.52444541	          0.85728511	          0.76192077	         -0.48420707	          0.87472080	          0.62004844	         -0.47096784	          1.19409728	          0.49434433	         -0.27194670	          1.10145612	          0.51856779	         -0.20715500	          1.04289822	          0.37441550	         -0.27102274	          0.82803510	          0.39615311	         -0.38866788	          0.69315557	          0.35985257	         -0.42994235	          0.67205254	          0.24471790	         -0.36273528	          0.86458321	          0.35439448	         -0.26948702	          1.04340025	          0.18906150	         -0.27597836	          0.99156803	          0.20920072	         -0.18149383	          0.48888023	          0.21889972	         -0.32768926	          0.66478235	          0.06311256	         -0.31021424	          0.59735481	          0.05119515	         -0.40042715	          1.02058596	          1.51937877	         -0.51190021	          1.00019175	          1.50985138	         -0.18704813	          1.07233003	          1.47536944	         -0.30953310	          0.95758259	          1.54454996	         -0.35735980	          0.86480255	          1.45238343	         -0.15018735	          0.87937447	          1.39335430	         -0.09917073	          0.78158153	          1.35632144	         -0.07318988	          0.72442689	          1.31847562	         -0.05025416	          0.73143922	          1.28000473	         -0.13222137	          0.93543813	          1.41166762	         -0.57164667	          0.97477856	          1.33528022	         -0.58784939	          0.91224085	          1.26156082	         -0.61420044	          0.90164429	          1.19552341	         -0.63153828	          0.88288244	          1.17639534	         -0.54233966	          0.78780067	          1.23091255	         -0.02711491	          0.92914333	          1.12656872	         -0.07997676	          0.87939973	          1.09884907	         -0.04107806	          0.97914865	          1.16727529	         -0.61742835	          1.13074275	          1.22852465	         -0.52172881	          1.14591324	          1.16302474	         -0.54625613	
2.28	        -13.85748567	          0.12771438	         -6.12830079	          1.03165340	          0.99822260	         -0.34618865	         59.34058926	          6.30259358	          4.76124828	        -84.34254035	          6.67325952	         -3.04125190	          6.69384573	         -7.33164350	        -23.05311256	         -7.30838022	          6.17350723	          1.93189740	         -4.55112575	        -50.85386893	        -22.79804410	        -18.07257735	        103.51589497	        104.32399085	        -24.46271541	         -8.16195845	        -13.85564605	        128.27407721	         99.52845135	          0.00000000	          0.00000000	          0.00000000	          0.00000000	          0.00000000	          0.00000000	          0.00000000	          0.00000000	          1.06475671	          1.03212755	         -0.46390944	          1.03930523	          1.04457269	         -0.22578049	          0.89901771	          1.10092521	         -0.42443152	          0.88349879	          1.10161868	         -0.30975134	          0.98711410	          0.94434332	         -0.16920200	          1.03739992	          0.80392910	         -0.20339484	          1.17564085	          0.72431925	         -0.20981696	          0.97507426	          0.89713596	         -0.52368924	          0.84971799	          0.77446660	         -0.48453143	          0.85717390	          0.63224984	         -0.47233284	          1.21561470	          0.49990001	         -0.27152494	          1.11955137	          0.51210948	         -0.20891550	          1.08166534	          0.36113522	         -0.27339950	          0.79886020	          0.40914440	         -0.39543083	          0.66341570	          0.37576272	         -0.43497288	          0.64288572	          0.25808489	         -0.37039064	          0.90758906	          0.31882195	         -0.27392939	          1.10492582	          0.17536670	         -0.28076705	          1.04940456	          0.18769498	         -0.18687972	          0.46420445	          0.24055380	         -0.33619184	          0.61930713	          0.06492135	         -0.31284546	          0.55265500	          0.05822349	         -0.40385379	          1.02135991	          1.52864337	         -0.50997534	          0.99651249	          1.51735025	         -0.18670088	          1.07056693	          1.48317038	         -0.30715307	          0.95698383	          1.55178056	         -0.35625100	          0.85996521	          1.46310134	         -0.15246594	          0.87263554	          1.40419360	         -0.10089396	          0.77365625	          1.36998386	         -0.07753456	          0.71510537	          1.33263253	         -0.05594245	          0.72345943	          1.29408780	         -0.13793511	          0.93802607	          1.42097027	         -0.57162513	          0.97846735	          1.34503060	         -0.58754371	          0.91638330	          1.27100338	         -0.61461464	          0.90737423	          1.20433806	         -0.63204806	          0.88820830	          1.18445554	         -0.54274016	          0.77762689	          1.24490491	         -0.03177717	          0.92018627	          1.14114429	         -0.08177258	          0.86932386	          1.11253541	         -0.04504454	          0.98596429	          1.18050283	         -0.61658951	          1.13228841	          1.25113499	         -0.51983956	          1.15153345	          1.18605100	         -0.54296858	
